# xmcd
#
# Track frame offsets: 
#        150
#        22898
#        40777
#        68144
#        85424
#        98942
#        124699
#        137555
#        154640
#        169322
#
# Disc length: 2738 seconds
#
# Revision: 0
# Processed by: cddbd v1.5.2PL0 Copyright (c) Steve Scherf et al.
# Submitted via: ExactAudioCopy v1.3
#
DISCID=7a0ab00a
DTITLE=John Fairhurst - Saltwater
DYEAR=2014
DGENRE=Blues Rock
TTITLE0=Breakdown
TTITLE1=Who You Fooling
TTITLE2=Pay Day
TTITLE3=More More More
TTITLE4=Time Goes By
TTITLE5=I'm Coming Home
TTITLE6=No Shelter
TTITLE7=Black Cat
TTITLE8=Dance In The Pines
TTITLE9=Saltwater
EXTD=
EXTT0=
EXTT1=
EXTT2=
EXTT3=
EXTT4=
EXTT5=
EXTT6=
EXTT7=
EXTT8=
EXTT9=
PLAYORDER=
